/vscmnt/brussel_pixiu_data/_data_brussel/112/vsc11236/PredSimResults/SUBJ10mtu3D/worker9.mot
version=1
nRows=7
nColumns=50
inDegrees=yes
endheader
                time	         pelvis_tilt	         pelvis_list	     pelvis_rotation	           pelvis_tx	           pelvis_ty	           pelvis_tz	       hip_flexion_r	     hip_adduction_r	      hip_rotation_r	        knee_angle_r	       ankle_angle_r	         mtp_angle_r	       hip_flexion_l	     hip_adduction_l	      hip_rotation_l	        knee_angle_l	       ankle_angle_l	         mtp_angle_l	    lumbar_extension	      lumbar_bending	     lumbar_rotation	 ercspn_r/activation	 intobl_r/activation	 extobl_r/activation	    abd_r/activation	    add_r/activation	hamstrings_r/activation	bifemsh_r/activation	glut_max_r/activation	iliopsoas_r/activation	rect_fem_r/activation	  vasti_r/activation	gastroc_r/activation	 soleus_r/activation	tib_ant_r/activation	 ercspn_l/activation	 intobl_l/activation	 extobl_l/activation	    abd_l/activation	    add_l/activation	hamstrings_l/activation	bifemsh_l/activation	glut_max_l/activation	iliopsoas_l/activation	rect_fem_l/activation	  vasti_l/activation	gastroc_l/activation	 soleus_l/activation	tib_ant_l/activation	
          0.00000000	         -3.30494017	         -0.92224558	          7.92861408	          0.00000000	          0.82305416	         -0.01355166	         30.58677019	         -2.06411593	         -6.40800076	         -7.40501292	          3.05544859	          0.26406867	        -17.98776203	         -1.11832211	          0.75785925	         -4.21935516	          7.89469084	         26.23649121	         -8.05716246	         -0.59685604	         -6.01394109	          0.12410400	          0.19233484	          0.01000005	          0.01000005	          0.10098288	          0.13542198	          0.26407827	          0.02392838	          0.10339331	          0.01000012	          0.01000002	          0.01000111	          0.01000001	          0.29028055	          0.06623024	          0.01000000	          0.01000002	          0.05840219	          0.01000003	          0.01468661	          0.23662398	          0.01404277	          0.42228644	          0.01000012	          0.01000001	          0.32915743	          0.24262668	          0.02605889	
          0.01116363	         -3.34283397	         -0.87385117	          8.03622690	          0.01561622	          0.82166994	         -0.01345438	         30.49639768	         -1.94331511	         -6.08152813	         -8.95663533	          2.79998843	          0.26244032	        -18.10530822	         -1.20307881	          0.45206952	         -5.86862358	          7.20976196	         27.93671570	         -7.87427057	         -0.17024410	         -6.30995401	          0.10463569	          0.16216280	          0.01000005	          0.01000000	          0.15551191	          0.11540476	          0.22265268	          0.06056146	          0.08717373	          0.01000006	          0.01000000	          0.01668492	          0.01186071	          0.31097826	          0.10950125	          0.01000000	          0.01000002	          0.04924049	          0.01000206	          0.01269846	          0.19950416	          0.01186068	          0.35604129	          0.01000010	          0.01000001	          0.29666497	          0.23384153	          0.02197096	
          0.02232725	         -3.36983594	         -0.83836368	          8.10153276	          0.03157021	          0.82049298	         -0.01327427	         30.23197966	         -1.82655218	         -5.68368681	        -10.39692720	          2.41373567	          0.25324354	        -18.11948205	         -1.30634679	          0.11844610	         -7.74108190	          6.38391265	         29.59111464	         -7.66622426	          0.27795692	         -6.58321963	          0.09389321	          0.13672391	          0.01000004	          0.02981963	          0.13111639	          0.09867555	          0.18772462	          0.09722706	          0.07349856	          0.01000003	          0.01000000	          0.01406752	          0.01000010	          0.39619800	          0.12269166	          0.01000000	          0.01000004	          0.04151600	          0.01000021	          0.01070857	          0.16820743	          0.01000010	          0.30018817	          0.01000013	          0.01000002	          0.25012637	          0.21962707	          0.01852432	
          0.03349088	         -3.38741127	         -0.80319437	          8.11710495	          0.04765670	          0.81964262	         -0.01296494	         29.88580272	         -1.70365348	         -5.37118612	        -11.67804124	          1.89804226	          0.24110557	        -17.96310374	         -1.41409212	         -0.24830952	         -9.92456321	          5.41863773	         31.11660908	         -7.45795379	          0.72390564	         -6.82610472	          0.11165031	          0.11527567	          0.01000003	          0.08309518	          0.17217798	          0.08319608	          0.15827578	          0.11215627	          0.06196864	          0.01000003	          0.01000001	          0.01186072	          0.01000000	          0.44874653	          0.15058087	          0.01000000	          0.01000002	          0.03500328	          0.01000006	          0.01237674	          0.14182030	          0.01000003	          0.25309687	          0.01000015	          0.01000001	          0.21088839	          0.20281188	          0.01561836	
          0.04465451	         -3.39469054	         -0.76554065	          8.08661079	          0.06372375	          0.81921658	         -0.01254091	         29.55083762	         -1.57952712	         -5.14849661	        -13.00209251	          1.45962382	          0.22641670	        -17.58615084	         -1.52465914	         -0.65375896	        -12.48151537	          4.32548202	         32.37983570	         -7.26275958	          1.16390546	         -7.03561349	          0.11556648	          0.09719207	          0.01000003	          0.12001064	          0.22447045	          0.07124583	          0.13344666	          0.12013145	          0.05224746	          0.01000005	          0.01182073	          0.01000012	          0.01000004	          0.46876169	          0.18139461	          0.01000000	          0.01000002	          0.02951222	          0.01986033	          0.01790632	          0.11957259	          0.01000009	          0.21339290	          0.01000009	          0.01000002	          0.17780577	          0.18130153	          0.01316827	
          0.05581814	         -3.39195026	         -0.72761470	          8.01525393	          0.07966962	          0.81928387	         -0.01201706	         29.26200904	         -1.45564819	         -4.99780181	        -14.43712396	          1.20995963	          0.21123988	        -16.94854256	         -1.64400089	         -1.10725836	        -15.45766719	          3.12713929	         33.20040604	         -7.08527955	          1.59797768	         -7.21288855	          0.11349326	          0.08194530	          0.01000003	          0.14243047	          0.25558877	          0.06644704	          0.11251255	          0.11873282	          0.04405126	          0.01000004	          0.04401624	          0.01000003	          0.01000001	          0.47571534	          0.20210061	          0.01000000	          0.01000002	          0.02488256	          0.08442187	          0.02071992	          0.10081493	          0.01000001	          0.17991740	          0.01000005	          0.01000001	          0.14991291	          0.15286029	          0.01110253	
          0.06698176	         -3.38130319	         -0.68500399	          7.90341988	          0.09541784	          0.81992541	         -0.01141793	         28.95783550	         -1.33126823	         -4.89730766	        -15.86343824	          1.18868321	          0.19525203	        -16.01119900	         -1.77155956	         -1.63324830	        -18.89682359	          1.84118020	         33.36736867	         -6.92889363	          2.02046591	         -7.35653255	          0.10815122	          0.06909032	          0.01000003	          0.15315952	          0.27330309	          0.06497564	          0.09486243	          0.11191519	          0.03714083	          0.01000003	          0.07225893	          0.01000003	          0.01000001	          0.45726469	          0.21081213	          0.01000001	          0.01000002	          0.02097917	          0.14607931	          0.02394712	          0.08499985	          0.01000001	          0.15169329	          0.01000004	          0.01000000	          0.12639567	          0.12888069	          0.01000000	
